<?xml version="1.0" encoding="utf-8"?>
<!-- Generator: Adobe Illustrator 24.0.2, SVG Export Plug-In . SVG Version: 6.00 Build 0)  -->
<svg version="1.1" id="Capa_1" xmlns="http://www.w3.org/2000/svg" xmlns:xlink="http://www.w3.org/1999/xlink" x="0px" y="0px"
	 viewBox="0 0 1280 396.62" style="enable-background:new 0 0 1280 396.62;" xml:space="preserve">
<style type="text/css">
	.st0{fill:#ECE30C;}
	.st1{fill:#71C6D0;}
	.st2{fill:#FFFFFF;}
	.st3{fill:#575756;}
</style>
<path class="st0" d="M391.62,77.39c-10.98-13.97-27.75-30.33-48.94-30.96c-21.29-0.63-30.7,15.14-48.94,15.48
	C278.08,62.2,256.01,51.1,228.5,0c10.85,13.1,27.06,27.74,48.93,30.96c35.37,5.2,57.47-23.59,81.56-15.48
	C371.47,19.68,385.14,34.01,391.62,77.39"/>
<path class="st1" d="M437.04,217.78L409.73,88.22c-1.04-4.94-5.97-8.52-11.73-8.52h-11.81c-6.16,0-11.31,4.1-11.88,9.45l-10,94.88
	l-124.03-57.2c-9.25-4.27-20.33-4.27-29.59,0L16.85,216.24C6.49,221.02,0,230.41,0,240.65v67.92c0,11.66,8.4,22.07,21,26
	l193.84,60.44c6.89,2.15,14.41,2.15,21.3,0l193.84-60.44c12.59-3.93,21-14.33,21-26v-67.92
	C450.98,231.41,445.69,222.87,437.04,217.78z"/>
<path class="st2" d="M373.41,273.72c-0.96-8.74,2.3-16.27,7.28-16.83c4.98-0.56,9.8,6.07,10.75,14.8c0.96,8.74-2.3,16.27-7.28,16.84
	C379.19,289.08,374.37,282.45,373.41,273.72"/>
<path class="st2" d="M296.49,271.69c-1.6-14.56,5.99-27.37,16.95-28.6c10.96-1.23,21.14,9.57,22.74,24.13
	c1.6,14.56-5.99,27.37-16.95,28.6C308.27,297.06,298.09,286.25,296.49,271.69"/>
<path class="st2" d="M349.9,292.38c7.97-0.9,15.47,7.82,16.75,19.47c1.28,11.65-4.14,21.82-12.11,22.71
	c-7.97,0.9-15.47-7.82-16.75-19.47C336.5,303.44,341.93,293.27,349.9,292.38"/>
<path class="st2" d="M351.46,206.78c7.97-0.9,15.47,7.82,16.75,19.47c1.28,11.65-4.14,21.82-12.11,22.71
	c-7.97,0.9-15.47-7.82-16.75-19.47C338.06,217.85,343.49,207.68,351.46,206.78"/>
<polygon class="st2" points="62.45,252.41 63.51,277.15 88.31,284.61 89.73,317.6 123.03,333.04 121.27,291.8 162.73,306.97 
	160.26,249.23 119.51,250.55 117.75,209.3 85.5,218.61 86.91,251.61 "/>
<g>
	<path class="st3" d="M497.74,282.85l20.48-20.31l3.82-1.91l76.2-0.69c1.39,0,2.78,0.23,4.17,0.69c1.39,0.46,2.66,1.1,3.82,1.91
		c1.16,0.81,2.11,1.79,2.86,2.95c0.75,1.16,1.13,2.49,1.13,3.99c0,1.39-0.38,2.69-1.13,3.91c-0.75,1.21-1.71,2.26-2.86,3.12
		c-1.16,0.87-2.43,1.53-3.82,2c-1.39,0.46-2.78,0.69-4.17,0.69h-74.81c-0.69,0-1.53,0.32-2.52,0.95c-0.98,0.64-1.91,1.45-2.78,2.43
		c-0.87,0.98-1.62,2-2.26,3.04c-0.64,1.04-0.96,1.91-0.96,2.6v11.8c0,1.27,0.4,2.46,1.22,3.56c0.81,1.1,1.82,2.08,3.04,2.95
		c1.22,0.87,2.52,1.56,3.91,2.08c1.39,0.52,2.6,0.78,3.65,0.78h75.5c0.93,0,1.85,0.32,2.78,0.95c0.93,0.64,1.79,1.42,2.6,2.34
		c0.81,0.93,1.45,1.94,1.91,3.04c0.46,1.1,0.69,2.06,0.69,2.86c0,1.39-0.38,2.69-1.13,3.91c-0.75,1.22-1.71,2.26-2.86,3.12
		c-1.16,0.87-2.43,1.56-3.82,2.08c-1.39,0.52-2.78,0.78-4.17,0.78h-58.49c-0.58,0-1.36,0.35-2.34,1.04
		c-0.98,0.69-1.97,1.53-2.95,2.52c-0.98,0.98-1.82,1.97-2.52,2.95c-0.7,0.98-1.04,1.76-1.04,2.34v26.38c0,0.35-0.12,0.87-0.35,1.56
		c-0.23,0.69-0.52,1.42-0.87,2.17c-0.35,0.75-0.69,1.45-1.04,2.08c-0.35,0.64-0.58,1.07-0.69,1.3c-1.97,2.66-4.2,4.43-6.68,5.29
		c-2.49,0.87-5.29,1.3-8.42,1.3s-5.93-0.43-8.42-1.3c-2.49-0.87-4.72-2.63-6.68-5.29c-0.23-0.35-0.61-1.04-1.13-2.08
		c-0.52-1.04-0.78-1.68-0.78-1.91v-80.01L497.74,282.85z"/>
	<path class="st3" d="M609.69,332.08c0.46-0.46,1.21-1.24,2.26-2.35c1.04-1.1,2.17-2.29,3.38-3.56c1.22-1.27,2.34-2.46,3.38-3.56
		c1.04-1.1,1.79-1.88,2.26-2.35c0.58-0.69,1.21-1.79,1.91-3.3c0.69-1.5,1.04-2.61,1.04-3.3v-26.94l2.25-4l20.22-20.34l3.98-1.91
		l26.79-0.52c1.04,0,2.42,0.23,4.15,0.69c1.73,0.46,2.94,1.1,3.63,1.91l20.4,20.31c0.23,0.35,0.52,0.87,0.87,1.56
		c0.34,0.69,0.66,1.45,0.95,2.26c0.29,0.81,0.55,1.59,0.78,2.34c0.23,0.75,0.35,1.36,0.35,1.82v25.51l2.35,3.99l11.59,11.8
		c0.85,0.93,1.51,2.17,1.99,3.73c0.48,1.56,0.72,2.92,0.72,4.08v23.78c0,2.66-0.91,5.18-2.74,7.55c-1.83,2.37-4.15,3.56-6.98,3.56
		c-0.94,0-1.95-0.23-3.01-0.69c-1.06-0.46-2.06-1.07-3-1.82c-0.94-0.75-1.74-1.62-2.39-2.6c-0.65-0.98-0.97-1.94-0.97-2.86v-26.9
		c0-0.92-0.29-2.02-0.87-3.3c-0.58-1.27-1.3-2.49-2.17-3.64c-0.87-1.16-1.88-2.14-3.04-2.95c-1.16-0.81-2.26-1.21-3.3-1.21h-44.78
		c-0.69,0-1.53,0.32-2.52,0.95c-0.98,0.64-1.97,1.39-2.95,2.26c-0.98,0.87-1.8,1.8-2.43,2.78c-0.64,0.98-0.96,1.82-0.96,2.52v26.38
		c0,0.35-0.12,0.87-0.35,1.56c-0.23,0.69-0.52,1.42-0.87,2.17c-0.35,0.75-0.69,1.45-1.04,2.08c-0.35,0.64-0.58,1.07-0.69,1.3
		c-1.97,2.66-4.2,4.43-6.68,5.29c-2.49,0.87-5.29,1.3-8.42,1.3c-3.12,0-5.93-0.43-8.42-1.3c-2.49-0.87-4.72-2.64-6.68-5.31
		c-0.23-0.35-0.61-1.04-1.13-2.08c-0.52-1.04-0.78-1.68-0.78-1.91v-30.77L609.69,332.08z M688.66,289.71
		c-0.35-1.68-0.87-3.27-1.57-4.77c-0.7-1.5-1.63-2.78-2.79-3.82c-1.16-1.04-2.61-1.56-4.36-1.56h-28.4c-0.7,0-1.54,0.32-2.53,0.95
		c-0.99,0.64-1.92,1.39-2.79,2.26c-0.87,0.87-1.62,1.8-2.26,2.78c-0.64,0.98-0.96,1.88-0.96,2.69v11.8c0,1.27,0.4,2.46,1.22,3.56
		c0.82,1.1,1.83,2.05,3.05,2.86c1.22,0.81,2.53,1.48,3.92,2c1.39,0.52,2.61,0.78,3.66,0.78h22.48c1.97,0,3.71-0.46,5.23-1.39
		c1.51-0.93,2.76-2.14,3.75-3.64c0.99-1.5,1.71-3.15,2.18-4.95c0.46-1.79,0.7-3.5,0.7-5.12
		C689.18,292.86,689.01,291.39,688.66,289.71z"/>
	<path class="st3" d="M730.32,354.54l-1.91-3.99v-63.7l1.91-3.99l20.48-20.31l3.82-1.91l59.88-0.69c1.04,0,2.4,0.23,4.08,0.69
		c1.68,0.46,2.92,1.1,3.73,1.91l19.61,19.61c0.58,0.58,0.87,1.21,0.87,1.91v1.74c0,2.08-0.64,3.76-1.91,5.03
		c-1.27,1.27-3.01,1.91-5.21,1.91c-0.58,0-1.19,0.03-1.82,0.09c-0.64,0.06-1.19-0.2-1.65-0.78c-0.46-0.35-1.22-1.01-2.26-2
		c-1.04-0.98-2.17-2.05-3.38-3.21c-1.22-1.15-2.34-2.23-3.39-3.21c-1.04-0.98-1.8-1.65-2.26-2c-0.35-0.35-0.93-0.78-1.73-1.3
		c-0.81-0.52-1.51-0.78-2.08-0.78H756c-0.81,0-1.71,0.32-2.69,0.95c-0.98,0.64-1.91,1.39-2.78,2.26c-0.87,0.87-1.59,1.8-2.17,2.78
		c-0.58,0.98-0.87,1.88-0.87,2.69v11.8l1.91,3.82l11.11,11.8c0.69,0.69,1.36,1.97,2,3.82c0.63,1.85,0.95,3.24,0.95,4.17v25.51
		c0,1.16,0.43,2.29,1.3,3.38c0.87,1.1,1.94,2.08,3.21,2.95c1.27,0.87,2.6,1.56,3.99,2.08c1.39,0.52,2.6,0.78,3.65,0.78h38.88
		c0.92,0,2.05-0.26,3.38-0.78c1.33-0.52,2.34-1.13,3.04-1.82c0.46-0.35,1.22-1.01,2.26-2c1.04-0.98,2.17-2.05,3.39-3.21
		c1.22-1.16,2.34-2.23,3.38-3.21c1.04-0.98,1.79-1.65,2.26-2c0.46-0.58,1.01-0.84,1.65-0.78c0.63,0.06,1.24,0.09,1.82,0.09
		c2.2,0,3.93,0.61,5.21,1.82c1.27,1.22,1.91,2.92,1.91,5.12v1.91c0,0.46-0.29,0.98-0.87,1.56l-19.61,19.79
		c-0.81,0.81-2.06,1.45-3.73,1.91c-1.68,0.46-3.04,0.69-4.08,0.69h-55.89c-1.04,0-2.4-0.23-4.08-0.69c-1.68-0.46-2.92-1.1-3.73-1.91
		L730.32,354.54z"/>
	<path class="st3" d="M843.57,263.12c1.56-2,3.39-3,5.47-3l92.51-0.17c1.39,0,2.78,0.2,4.17,0.61c1.39,0.41,2.66,1.01,3.82,1.82
		c1.15,0.81,2.11,1.79,2.86,2.95c0.75,1.16,1.13,2.49,1.13,3.99c0,1.39-0.38,2.69-1.13,3.91c-0.75,1.21-1.71,2.26-2.86,3.12
		c-1.16,0.87-2.43,1.56-3.82,2.08c-1.39,0.52-2.78,0.78-4.17,0.78h-25.69c-0.69,0-1.53,0.32-2.52,0.95
		c-0.98,0.64-1.91,1.45-2.78,2.43c-0.87,0.98-1.62,1.97-2.26,2.95c-0.64,0.98-0.96,1.82-0.96,2.52v11.8l2.08,3.99l11.11,11.8
		c0.81,0.93,1.45,2.2,1.91,3.82c0.46,1.62,0.7,3.01,0.7,4.17v39.4c0,2.43-0.52,4.57-1.56,6.42c-1.04,1.85-2.4,3.36-4.08,4.51
		c-1.68,1.16-3.59,2.03-5.73,2.6c-2.14,0.58-4.25,0.87-6.32,0.87c-3.21,0-5.99-0.43-8.34-1.3c-2.35-0.87-4.56-2.63-6.62-5.29
		c-0.35-0.46-0.81-1.18-1.38-2.17c-0.58-0.98-0.86-1.59-0.86-1.82v-76.2c0-0.81-0.29-1.88-0.87-3.21c-0.58-1.33-1.36-2.6-2.34-3.82
		c-0.98-1.22-2.03-2.26-3.12-3.12c-1.1-0.87-2.17-1.3-3.21-1.3h-25.69c-1.39,0-2.78-0.26-4.17-0.8c-1.39-0.53-2.63-1.24-3.73-2.12
		c-1.1-0.88-2.03-1.94-2.78-3.18c-0.75-1.24-1.13-2.57-1.13-3.98C841.23,267.13,842.01,265.13,843.57,263.12z"/>
	<path class="st3" d="M952.66,354.54l-1.91-3.99v-63.7l1.91-3.99l20.51-20.31l3.82-1.91l59.8-0.69c1.16,0,2.57,0.23,4.26,0.69
		c1.68,0.46,2.93,1.1,3.74,1.91l20.34,20.31c0.81,0.81,1.45,2.06,1.91,3.73c0.46,1.68,0.7,3.1,0.7,4.25v55.71
		c0,1.16-0.23,2.58-0.7,4.25c-0.46,1.68-1.1,2.92-1.91,3.73l-20.34,20.31c-0.81,0.81-2.06,1.45-3.74,1.91
		c-1.68,0.46-3.1,0.69-4.26,0.69h-55.8c-1.04,0-2.41-0.23-4.09-0.69c-1.68-0.46-2.93-1.1-3.74-1.91L952.66,354.54z M1032.84,301.25
		c0-0.35-0.03-1.01-0.09-2c-0.06-0.98-0.15-2.05-0.26-3.21c-0.12-1.16-0.2-2.23-0.26-3.21c-0.06-0.98-0.09-1.65-0.09-2
		c-0.12-1.04-0.43-2.23-0.96-3.56c-0.52-1.33-1.19-2.54-2-3.64c-0.81-1.1-1.76-2.05-2.86-2.86c-1.1-0.81-2.23-1.22-3.38-1.22h-44.61
		c-0.81,0-1.71,0.32-2.69,0.95c-0.98,0.64-1.91,1.39-2.78,2.26c-0.87,0.87-1.59,1.8-2.17,2.78c-0.58,0.98-0.87,1.88-0.87,2.69v60.92
		c0,1.27,0.4,2.46,1.22,3.56c0.81,1.1,1.82,2.08,3.04,2.95c1.22,0.87,2.52,1.54,3.91,2c1.39,0.46,2.6,0.7,3.65,0.7h55.02
		c1.5,0,2.98-0.38,4.43-1.13c1.45-0.75,2.75-1.71,3.91-2.86c1.15-1.16,2.05-2.49,2.69-3.99c0.63-1.5,0.95-3.01,0.95-4.51v-22.22
		c0-1.04-0.29-2.2-0.87-3.47c-0.58-1.27-1.22-2.31-1.91-3.12c-0.35-0.46-1.04-1.24-2.08-2.34c-1.04-1.1-2.17-2.28-3.38-3.56
		c-1.22-1.27-2.34-2.46-3.39-3.56c-1.04-1.1-1.8-1.88-2.26-2.34L1032.84,301.25z"/>
	<path class="st3" d="M1144.8,260.64c1.67,0.46,2.91,1.1,3.72,1.91l20.41,20.31c0.23,0.35,0.52,0.87,0.86,1.56
		c0.35,0.69,0.66,1.45,0.95,2.26c0.29,0.81,0.55,1.59,0.78,2.34c0.23,0.75,0.35,1.36,0.35,1.82v25.51l2.35,3.99l11.59,11.8
		c0.85,0.93,1.51,2.17,1.99,3.73c0.48,1.56,0.72,2.92,0.72,4.08v23.78c0,2.66-0.91,5.18-2.74,7.55c-1.83,2.37-4.15,3.56-6.98,3.56
		c-0.94,0-1.95-0.23-3.01-0.69c-1.06-0.46-2.06-1.07-3-1.82c-0.94-0.75-1.74-1.62-2.39-2.6c-0.65-0.98-0.97-1.94-0.97-2.86v-26.9
		c0-0.92-0.29-2.02-0.87-3.3c-0.58-1.27-1.3-2.49-2.17-3.64c-0.87-1.16-1.88-2.14-3.04-2.95c-1.16-0.81-2.26-1.21-3.3-1.21h-44.78
		c-0.69,0-1.53,0.32-2.52,0.95c-0.98,0.64-1.97,1.39-2.95,2.26c-0.98,0.87-1.8,1.8-2.43,2.78c-0.64,0.98-0.96,1.82-0.96,2.52v25.69
		c0,2.43-0.55,4.54-1.65,6.34c-1.1,1.8-2.52,3.3-4.25,4.51c-1.73,1.21-3.67,2.11-5.81,2.69c-2.14,0.58-4.25,0.87-6.33,0.87
		c-3.12,0-5.93-0.43-8.42-1.3c-2.49-0.87-4.72-2.64-6.68-5.31c-0.23-0.35-0.61-1.04-1.13-2.08c-0.52-1.04-0.78-1.68-0.78-1.91
		v-96.47c0-0.93,0.34-1.97,1.04-3.13c0.69-1.16,1.56-2.23,2.6-3.22c1.04-0.98,2.1-1.82,3.2-2.52c1.1-0.69,2.11-1.04,3.03-1.04
		l59.5-0.52C1141.77,259.94,1143.13,260.18,1144.8,260.64z M1152.26,289.45c-0.35-1.62-0.9-3.18-1.65-4.69
		c-0.75-1.5-1.71-2.75-2.86-3.73c-1.16-0.98-2.55-1.48-4.17-1.48h-44.61c-0.81,0-1.71,0.32-2.69,0.95
		c-0.98,0.64-1.91,1.39-2.78,2.26c-0.87,0.87-1.59,1.8-2.17,2.78c-0.58,0.98-0.87,1.88-0.87,2.69v11.8c0,1.27,0.4,2.46,1.22,3.56
		c0.81,1.1,1.82,2.08,3.04,2.95c1.22,0.87,2.52,1.54,3.91,2c1.39,0.46,2.6,0.69,3.65,0.69h38.71c2.08,0,3.85-0.49,5.29-1.48
		c1.45-0.98,2.66-2.23,3.64-3.73c0.98-1.5,1.71-3.15,2.17-4.95c0.46-1.79,0.69-3.56,0.69-5.29
		C1152.78,292.52,1152.6,291.07,1152.26,289.45z"/>
	<path class="st3" d="M1181.42,305.24l-1.91-3.99c-0.12-4.05-0.2-7.52-0.26-10.41c-0.06-2.89-0.15-5.84-0.26-8.85
		c-0.12-3.01-0.17-5.55-0.17-7.64v-0.69c0-1.16,0.23-2.4,0.69-3.73c0.46-1.33,1.1-2.54,1.91-3.65c0.81-1.1,1.73-2,2.78-2.69
		c1.04-0.69,2.2-1.04,3.47-1.04c3.01,0,5.47,1.21,7.38,3.64c1.91,2.43,2.86,5.15,2.86,8.16v23.78c0,0.58,0.29,1.56,0.87,2.95
		c0.58,1.39,1.16,2.37,1.74,2.95l18.92,18.92c1.27,1.27,2.89,2.06,4.86,2.34c1.97,0.29,3.76,0.43,5.38,0.43
		c1.62,0,3.3-0.14,5.03-0.43c1.73-0.29,3.24-1.07,4.51-2.34l18.92-18.92c0.69-0.58,1.33-1.71,1.91-3.38
		c0.58-1.68,0.87-2.98,0.87-3.91v-23.6c0-1.16,0.23-2.34,0.7-3.56c0.47-1.21,1.11-2.34,1.93-3.38c0.82-1.04,1.75-1.91,2.8-2.6
		c1.05-0.69,2.16-1.04,3.33-1.04c3.15,0,5.66,1.21,7.53,3.64c1.87,2.43,2.8,5.15,2.8,8.16v23.08c0,0.93-0.26,2.29-0.78,4.08
		c-0.52,1.8-1.13,3.04-1.82,3.73l-28.16,28.81c-0.23,0.23-0.58,0.78-1.05,1.65c-0.46,0.87-0.69,1.42-0.69,1.65v25.69
		c0,2.43-0.58,4.57-1.74,6.42c-1.16,1.85-2.61,3.36-4.35,4.51c-1.74,1.16-3.71,2.03-5.91,2.6c-2.2,0.58-4.35,0.87-6.43,0.87
		c-3.13,0-5.89-0.43-8.26-1.3c-2.38-0.87-4.55-2.63-6.52-5.29c-0.35-0.46-0.81-1.18-1.39-2.17c-0.58-0.98-0.87-1.53-0.87-1.65
		v-26.38c0-0.92-0.44-2.2-1.31-3.82c-0.87-1.62-1.42-2.72-1.65-3.3L1181.42,305.24z"/>
</g>
<g>
	<path class="st3" d="M499.65,193.47l-1.91-3.99v-63.7l1.91-3.99l20.48-20.31l3.82-1.91l76.2-0.69c1.39,0,2.78,0.23,4.17,0.68
		c1.39,0.46,2.63,1.08,3.73,1.87c1.1,0.8,2.02,1.79,2.78,2.98c0.75,1.19,1.13,2.47,1.13,3.83c0,1.36-0.38,2.64-1.13,3.84
		c-0.75,1.19-1.68,2.22-2.78,3.07c-1.1,0.85-2.34,1.53-3.73,2.04c-1.39,0.51-2.78,0.77-4.17,0.77h-74.81
		c-0.69,0-1.53,0.32-2.52,0.96c-0.98,0.64-1.91,1.42-2.78,2.35s-1.62,1.92-2.26,2.96c-0.64,1.05-0.96,1.92-0.96,2.61v11.85
		l1.91,3.84l11.11,11.85c0.69,0.7,1.36,1.97,2,3.83c0.63,1.86,0.95,3.25,0.95,4.18v25.63c0,1.16,0.43,2.3,1.3,3.4
		c0.87,1.1,1.94,2.09,3.21,2.96c1.27,0.87,2.6,1.57,3.99,2.09c1.39,0.52,2.6,0.78,3.65,0.78h38.71c2.08,0,3.88-0.46,5.38-1.39
		c1.5-0.92,2.75-2.14,3.73-3.64c0.98-1.5,1.71-3.12,2.17-4.86c0.46-1.74,0.69-3.47,0.69-5.21c0-3.59-0.49-6.31-1.47-8.16
		c-0.98-1.85-2.32-3.24-3.99-4.17c-1.68-0.92-3.56-1.5-5.64-1.74c-2.08-0.23-4.23-0.55-6.42-0.95c-2.2-0.4-4.37-1.01-6.51-1.82
		c-2.14-0.81-4.02-2.2-5.64-4.17c-0.46-0.46-0.69-0.98-0.69-1.56v-1.91c0-1.97,0.78-3.96,2.34-5.99c1.56-2.02,3.44-3.04,5.64-3.04
		h30.97c1.4,0,2.74,0.49,4.03,1.48c1.29,0.98,2.42,2.2,3.42,3.64c0.99,1.45,1.75,2.98,2.28,4.6c0.53,1.62,0.79,3.01,0.79,4.17v22.91
		c0,1.16-0.23,2.58-0.7,4.25c-0.46,1.68-1.1,2.92-1.91,3.73l-20.34,20.31c-0.81,0.81-2.06,1.45-3.74,1.91
		c-1.68,0.46-3.1,0.69-4.26,0.69h-55.8c-1.04,0-2.41-0.23-4.09-0.69c-1.68-0.46-2.93-1.1-3.74-1.91L499.65,193.47z"/>
	<path class="st3" d="M632.78,171.01c0.46-0.46,1.21-1.24,2.26-2.35c1.04-1.1,2.17-2.29,3.38-3.56c1.22-1.27,2.34-2.46,3.38-3.56
		c1.04-1.1,1.79-1.88,2.26-2.35c0.58-0.69,1.21-1.8,1.91-3.3c0.69-1.51,1.04-2.61,1.04-3.3v-26.94l2.25-4l20.22-20.34l3.98-1.91
		l26.79-0.52c1.04,0,2.42,0.23,4.15,0.69c1.73,0.46,2.94,1.1,3.63,1.91l20.4,20.31c0.23,0.35,0.52,0.87,0.87,1.56
		c0.34,0.69,0.66,1.45,0.95,2.26c0.29,0.81,0.55,1.59,0.78,2.34c0.23,0.75,0.35,1.36,0.35,1.82v25.51l2.35,3.99l11.59,11.8
		c0.85,0.93,1.51,2.17,1.99,3.73c0.48,1.56,0.72,2.92,0.72,4.08v23.78c0,2.66-0.91,5.18-2.74,7.55c-1.83,2.37-4.15,3.56-6.98,3.56
		c-0.94,0-1.95-0.23-3.01-0.69c-1.06-0.46-2.06-1.07-3-1.82c-0.94-0.75-1.74-1.62-2.39-2.6c-0.65-0.98-0.97-1.94-0.97-2.86v-26.9
		c0-0.93-0.29-2.02-0.87-3.3c-0.58-1.27-1.3-2.49-2.17-3.64c-0.87-1.16-1.88-2.14-3.04-2.95c-1.16-0.81-2.26-1.22-3.3-1.22h-44.78
		c-0.69,0-1.53,0.32-2.52,0.95c-0.98,0.64-1.97,1.39-2.95,2.26c-0.98,0.87-1.8,1.79-2.43,2.78c-0.64,0.98-0.96,1.82-0.96,2.52v26.38
		c0,0.35-0.12,0.87-0.35,1.56c-0.23,0.69-0.52,1.42-0.87,2.17c-0.35,0.75-0.69,1.45-1.04,2.08c-0.35,0.64-0.58,1.07-0.69,1.3
		c-1.97,2.66-4.2,4.43-6.68,5.29c-2.49,0.87-5.29,1.3-8.42,1.3s-5.93-0.43-8.42-1.3c-2.49-0.87-4.72-2.64-6.68-5.3
		c-0.23-0.35-0.61-1.04-1.13-2.09c-0.52-1.04-0.78-1.68-0.78-1.91v-30.77L632.78,171.01z M711.74,128.64
		c-0.35-1.68-0.87-3.27-1.57-4.77c-0.7-1.5-1.63-2.78-2.79-3.82c-1.16-1.04-2.61-1.56-4.36-1.56h-28.4c-0.7,0-1.54,0.32-2.53,0.95
		c-0.99,0.64-1.92,1.39-2.79,2.26c-0.87,0.87-1.62,1.8-2.26,2.78c-0.64,0.98-0.96,1.88-0.96,2.69v11.8c0,1.27,0.4,2.46,1.22,3.56
		c0.82,1.1,1.83,2.06,3.05,2.86c1.22,0.81,2.53,1.48,3.92,2c1.39,0.52,2.61,0.78,3.66,0.78h22.48c1.97,0,3.71-0.46,5.23-1.39
		c1.51-0.92,2.76-2.14,3.75-3.64c0.99-1.5,1.71-3.15,2.18-4.95c0.46-1.79,0.7-3.5,0.7-5.12
		C712.27,131.79,712.09,130.32,711.74,128.64z"/>
	<path class="st3" d="M763.99,125.78l1.91-3.99l20.54-20.31l3.83-1.91l59.88-0.69c1.16,0,2.58,0.23,4.27,0.69
		c1.68,0.46,2.93,1.1,3.74,1.91l20.37,20.31c0.81,0.81,1.45,2.06,1.92,3.73c0.46,1.68,0.7,3.1,0.7,4.25v72.2
		c0,1.39-0.24,2.78-0.71,4.17c-0.47,1.39-1.12,2.63-1.94,3.73c-0.82,1.1-1.83,2.03-3,2.78c-1.18,0.75-2.54,1.13-4.06,1.13
		c-0.94,0-1.95-0.23-3.01-0.69c-1.06-0.46-2.06-1.07-3-1.82c-0.94-0.75-1.74-1.62-2.39-2.6c-0.65-0.98-0.97-1.94-0.97-2.86v-76.02
		c0-0.93-0.29-2.05-0.86-3.38c-0.58-1.33-1.3-2.57-2.16-3.73c-0.86-1.16-1.87-2.14-3.02-2.95c-1.15-0.81-2.24-1.22-3.28-1.22H841
		c-0.69,0-1.55,0.32-2.59,0.95c-1.04,0.64-2.04,1.39-3.02,2.26c-0.98,0.87-1.79,1.82-2.42,2.86c-0.63,1.04-0.95,1.91-0.95,2.6v74.81
		c0,1.27-0.26,2.6-0.79,3.99c-0.53,1.39-1.23,2.66-2.1,3.82c-0.88,1.16-1.9,2.11-3.06,2.86c-1.17,0.75-2.46,1.13-3.85,1.13
		c-0.94,0-1.93-0.23-2.98-0.69c-1.05-0.46-2.04-1.07-2.98-1.82c-0.94-0.75-1.72-1.62-2.36-2.6c-0.64-0.98-0.96-1.94-0.96-2.86
		v-76.02c0-0.93-0.29-2.05-0.87-3.38c-0.58-1.33-1.33-2.57-2.26-3.73c-0.93-1.16-1.97-2.14-3.12-2.95c-1.16-0.81-2.26-1.22-3.3-1.22
		h-11.8c-0.81,0-1.71,0.32-2.69,0.95c-0.98,0.64-1.91,1.39-2.78,2.26c-0.87,0.87-1.59,1.8-2.17,2.78c-0.58,0.98-0.87,1.88-0.87,2.69
		v11.8l1.91,3.82l11.11,11.8c0.81,0.93,1.45,2.2,1.91,3.82c0.46,1.62,0.69,3.01,0.69,4.17v39.4c0,2.43-0.52,4.57-1.56,6.42
		c-1.04,1.85-2.4,3.36-4.08,4.51c-1.68,1.16-3.56,2.03-5.64,2.6c-2.08,0.58-4.23,0.87-6.42,0.87c-3.12,0-5.93-0.43-8.42-1.3
		c-2.49-0.87-4.72-2.63-6.68-5.29c-0.23-0.35-0.61-1.04-1.13-2.08c-0.52-1.04-0.78-1.68-0.78-1.91V125.78z"/>
	<path class="st3" d="M899.02,193.47l-1.91-3.99v-63.7l1.91-3.99l20.48-20.31l3.82-1.91l76.2-0.69c1.39,0,2.78,0.23,4.17,0.69
		c1.39,0.46,2.66,1.09,3.82,1.89c1.16,0.8,2.11,1.78,2.86,2.93c0.75,1.15,1.13,2.47,1.13,3.95c0,1.38-0.38,2.67-1.13,3.87
		c-0.75,1.2-1.71,2.24-2.86,3.1c-1.16,0.86-2.43,1.52-3.82,1.98c-1.39,0.46-2.78,0.69-4.17,0.69h-74.81c-0.69,0-1.53,0.32-2.52,0.96
		c-0.98,0.64-1.91,1.46-2.78,2.44c-0.87,0.99-1.62,2.01-2.26,3.06c-0.64,1.05-0.96,1.92-0.96,2.62v11.87c0,1.28,0.4,2.47,1.22,3.58
		c0.81,1.11,1.82,2.09,3.04,2.97c1.22,0.87,2.52,1.57,3.91,2.1c1.39,0.52,2.6,0.78,3.65,0.78h75.5c0.93,0,1.85,0.32,2.78,0.95
		c0.93,0.64,1.79,1.42,2.6,2.34c0.81,0.93,1.45,1.94,1.91,3.04c0.46,1.1,0.69,2.06,0.69,2.86c0,1.39-0.38,2.69-1.13,3.91
		c-0.75,1.21-1.71,2.26-2.86,3.12c-1.16,0.87-2.43,1.56-3.82,2.08c-1.39,0.52-2.78,0.78-4.17,0.78h-58.49
		c-0.69,0-1.53,0.31-2.52,0.94c-0.98,0.63-1.91,1.43-2.78,2.4c-0.87,0.97-1.62,1.94-2.26,2.92c-0.64,0.97-0.96,1.8-0.96,2.49v11.67
		c0,1.26,0.43,2.43,1.3,3.52c0.87,1.09,1.91,2.09,3.12,3c1.22,0.92,2.49,1.63,3.82,2.15c1.33,0.52,2.52,0.77,3.56,0.77h59.19
		c0.93,0,1.85,0.33,2.78,0.97c0.93,0.65,1.79,1.44,2.6,2.39c0.81,0.94,1.45,1.97,1.91,3.09c0.46,1.12,0.69,2.09,0.69,2.92
		c0,1.53-0.38,2.89-1.13,4.07c-0.75,1.18-1.71,2.18-2.86,3.01c-1.16,0.82-2.43,1.47-3.82,1.94c-1.39,0.47-2.78,0.71-4.17,0.71h-72.2
		c-1.04,0-2.4-0.23-4.08-0.69c-1.68-0.46-2.92-1.1-3.73-1.91L899.02,193.47z"/>
	<path class="st3" d="M1100.89,99.57c1.67,0.46,2.91,1.1,3.72,1.91l20.41,20.31c0.23,0.35,0.52,0.87,0.86,1.56
		c0.35,0.69,0.66,1.45,0.95,2.26c0.29,0.81,0.55,1.59,0.78,2.34c0.23,0.75,0.35,1.36,0.35,1.82v25.51l2.35,3.99l11.59,11.8
		c0.85,0.93,1.51,2.17,1.99,3.73c0.48,1.56,0.72,2.92,0.72,4.08v23.78c0,2.66-0.91,5.18-2.74,7.55c-1.83,2.37-4.15,3.56-6.98,3.56
		c-0.94,0-1.95-0.23-3.01-0.69c-1.06-0.46-2.06-1.07-3-1.82c-0.94-0.75-1.74-1.62-2.39-2.6c-0.65-0.98-0.97-1.94-0.97-2.86v-26.9
		c0-0.93-0.29-2.02-0.87-3.3c-0.58-1.27-1.3-2.49-2.17-3.64c-0.87-1.16-1.88-2.14-3.04-2.95c-1.16-0.81-2.26-1.22-3.3-1.22h-44.78
		c-0.69,0-1.53,0.32-2.52,0.95c-0.98,0.64-1.97,1.39-2.95,2.26c-0.98,0.87-1.8,1.79-2.43,2.78c-0.64,0.98-0.96,1.82-0.96,2.52v25.69
		c0,2.43-0.55,4.54-1.65,6.33c-1.1,1.8-2.52,3.3-4.25,4.51c-1.73,1.22-3.67,2.11-5.81,2.69c-2.14,0.58-4.25,0.87-6.33,0.87
		c-3.12,0-5.93-0.43-8.42-1.3c-2.49-0.87-4.72-2.64-6.68-5.3c-0.23-0.35-0.61-1.04-1.13-2.09c-0.52-1.04-0.78-1.68-0.78-1.91V109.3
		c0-0.93,0.34-1.97,1.04-3.13c0.69-1.16,1.56-2.23,2.6-3.22c1.04-0.98,2.1-1.82,3.2-2.52c1.1-0.69,2.11-1.04,3.03-1.04l59.5-0.52
		C1097.86,98.87,1099.22,99.11,1100.89,99.57z M1108.34,128.38c-0.35-1.62-0.9-3.18-1.65-4.69c-0.75-1.5-1.71-2.75-2.86-3.73
		c-1.16-0.98-2.55-1.48-4.17-1.48h-44.61c-0.81,0-1.71,0.32-2.69,0.95c-0.98,0.64-1.91,1.39-2.78,2.26
		c-0.87,0.87-1.59,1.8-2.17,2.78c-0.58,0.98-0.87,1.88-0.87,2.69v11.8c0,1.27,0.4,2.46,1.22,3.56c0.81,1.1,1.82,2.08,3.04,2.95
		c1.22,0.87,2.52,1.53,3.91,2c1.39,0.46,2.6,0.69,3.65,0.69h38.71c2.08,0,3.85-0.49,5.29-1.48c1.45-0.98,2.66-2.23,3.64-3.73
		c0.98-1.5,1.71-3.15,2.17-4.95c0.46-1.79,0.69-3.56,0.69-5.29C1108.87,131.45,1108.69,130,1108.34,128.38z"/>
	<path class="st3" d="M1162.5,190.52c0-2.2,0.63-3.91,1.91-5.12c1.27-1.21,2.95-1.82,5.03-1.82c0.58,0,1.22-0.03,1.91-0.09
		c0.69-0.06,1.27,0.2,1.73,0.78c0.35,0.35,1.04,1.04,2.08,2.08c1.04,1.04,2.17,2.11,3.38,3.21c1.22,1.1,2.34,2.14,3.39,3.12
		c1.04,0.98,1.79,1.65,2.26,2c0.92,0.81,2.08,1.45,3.47,1.91c1.39,0.46,2.66,0.69,3.82,0.69h38.71c2.08,0,3.85-0.49,5.29-1.48
		c1.45-0.98,2.66-2.2,3.64-3.65c0.98-1.45,1.71-3.09,2.17-4.95c0.46-1.85,0.69-3.64,0.69-5.38c0-1.16-0.2-2.54-0.61-4.17
		c-0.41-1.62-1.01-3.18-1.82-4.69c-0.81-1.5-1.77-2.8-2.86-3.91c-1.1-1.1-2.4-1.65-3.9-1.65h-58.49c-1.16,0-2.52-0.32-4.08-0.95
		c-1.56-0.63-3.07-1.45-4.51-2.43c-1.45-0.98-2.66-2.11-3.64-3.38c-0.98-1.27-1.47-2.6-1.47-3.99v-30.9l1.91-3.99l20.48-20.31
		l3.82-1.91c0.23,0,1.74-0.03,4.51-0.09c2.78-0.06,6.57-0.11,11.37-0.17c4.8-0.06,9.83-0.11,15.1-0.17
		c5.26-0.06,10.5-0.11,15.71-0.17c5.21-0.06,9.55-0.09,13.02-0.09h0.52c1.04,0,2.37,0.26,3.99,0.78c1.62,0.52,2.78,1.13,3.47,1.82
		l19.61,19.79c0.58,0.46,0.84,1.01,0.78,1.65c-0.06,0.64-0.09,1.24-0.09,1.82c0,4.63-2.32,6.94-6.94,6.94
		c-0.58,0-1.19,0.03-1.82,0.09c-0.64,0.06-1.19-0.2-1.65-0.78c-0.46-0.35-1.22-1.01-2.26-2c-1.04-0.98-2.17-2.05-3.38-3.21
		c-1.22-1.15-2.34-2.23-3.39-3.21c-1.04-0.98-1.8-1.65-2.26-2c-0.35-0.35-0.93-0.78-1.73-1.3c-0.81-0.52-1.51-0.78-2.08-0.78h-61.1
		c-0.81,0-1.71,0.32-2.69,0.95c-0.98,0.63-1.91,1.38-2.78,2.24c-0.87,0.86-1.59,1.78-2.17,2.76c-0.58,0.98-0.87,1.87-0.87,2.68
		v11.73c0,1.15,0.43,2.3,1.3,3.45c0.87,1.15,1.91,2.16,3.12,3.02c1.22,0.86,2.49,1.58,3.82,2.16c1.33,0.58,2.52,0.86,3.56,0.86
		h59.01l3.99,2.26l20.31,20.36c1.39,1.39,2.17,3.16,2.34,5.31c0.17,2.15,0.26,4.09,0.26,5.83c0,1.86-0.09,3.86-0.26,6
		c-0.17,2.15-0.95,3.92-2.34,5.31l-20.31,20.36c-0.81,0.81-2.06,1.45-3.73,1.91c-1.68,0.46-3.1,0.69-4.25,0.69h-55.71
		c-1.04,0-2.4-0.23-4.08-0.69c-1.68-0.46-2.92-1.1-3.73-1.91l-19.79-19.79c-0.46-0.46-0.69-0.98-0.69-1.56V190.52z"/>
</g>
</svg>
